<?xml version="1.0" standalone="no"?>
<!DOCTYPE svg PUBLIC "-//W3C//DTD SVG 20010904//EN"
 "http://www.w3.org/TR/2001/REC-SVG-20010904/DTD/svg10.dtd">
<svg version="1.0" xmlns="http://www.w3.org/2000/svg"
 width="200.000000pt" height="200.000000pt" viewBox="0 0 200.000000 200.000000"
 preserveAspectRatio="xMidYMid meet">

<g transform="translate(0.000000,200.000000) scale(0.100000,-0.100000)"
fill="#000000" stroke="none">
<path d="M1059 1847 c-8 -26 -5 -34 14 -29 15 4 18 2 12 -8 -5 -9 -4 -11 3 -6
7 4 12 8 12 9 0 4 -40 37 -41 34z"/>
<path d="M1146 1818 c5 -7 2 -9 -8 -5 -9 3 -23 -2 -33 -13 -9 -10 -24 -17 -33
-15 -9 1 -20 -2 -23 -7 -8 -12 -69 0 -69 13 0 6 5 7 12 3 7 -5 8 -3 3 6 -6 10
-11 9 -22 -5 -18 -25 -21 -74 -8 -132 5 -23 4 -33 -5 -33 -6 0 -25 -9 -41 -21
-21 -15 -29 -29 -29 -50 0 -17 -4 -28 -9 -24 -5 3 -12 -4 -16 -15 -3 -11 -10
-20 -15 -20 -5 0 -7 6 -4 14 3 8 0 17 -5 21 -6 3 -8 11 -5 17 8 13 -12 2 -38
-20 -20 -17 -24 -62 -6 -80 9 -9 7 -16 -6 -31 -10 -11 -15 -24 -12 -29 3 -5
-1 -15 -9 -22 -7 -6 -11 -18 -8 -26 4 -10 0 -12 -13 -7 -31 11 -45 36 -39 70
4 20 1 33 -7 36 -10 4 -10 6 0 6 6 1 12 6 12 11 0 6 -6 10 -12 9 -27 -3 -38 2
-38 16 0 8 -3 15 -7 15 -14 0 -34 53 -23 64 5 5 41 10 80 11 39 2 73 4 74 6 2
2 -4 29 -13 59 -12 39 -32 70 -65 104 -45 46 -46 47 -26 13 l22 -36 -31 15
c-17 9 -31 20 -31 26 0 6 -3 9 -6 6 -3 -4 0 -17 7 -30 l12 -23 -23 20 -23 20
5 -22 c7 -26 -24 -59 -43 -47 -9 5 -10 2 -5 -11 5 -15 4 -16 -9 -5 -11 9 -15
9 -15 1 0 -9 -5 -9 -21 -1 -23 13 -49 -1 -49 -26 0 -8 -6 -11 -15 -8 -9 4 -15
1 -15 -7 0 -10 -3 -10 -12 -1 -22 22 -38 15 -28 -13 13 -34 6 -31 -20 8 -12
17 -19 24 -16 15 9 -28 13 -44 9 -35 -3 4 -11 7 -19 7 -9 0 -12 5 -9 10 3 6 1
10 -5 10 -8 0 -10 -16 -6 -49 7 -65 18 -88 61 -138 l36 -43 22 20 c11 11 24
20 29 20 4 0 8 7 8 15 0 8 4 15 8 15 5 0 15 12 23 26 l14 26 5 -22 c5 -22 7
-22 22 -6 9 9 22 15 29 14 6 -2 14 3 16 10 3 7 -4 12 -16 12 -11 0 -23 5 -26
10 -3 6 4 10 18 10 15 0 28 -8 35 -24 13 -30 -1 -46 -39 -46 -38 0 -44 -27
-19 -89 11 -29 20 -60 20 -71 0 -11 16 -35 35 -54 19 -20 35 -44 35 -55 0 -32
52 -67 111 -75 70 -10 83 -20 57 -49 -23 -26 -50 -97 -37 -97 15 0 10 -37 -7
-54 -10 -11 -12 -21 -6 -32 7 -13 3 -23 -17 -42 -14 -13 -17 -18 -6 -11 18 13
19 13 7 -3 -8 -10 -22 -20 -33 -23 -19 -6 -27 -35 -10 -35 5 0 -6 -16 -23 -35
-25 -27 -32 -44 -31 -70 0 -19 -3 -35 -7 -35 -15 0 -25 -64 -12 -78 29 -28 45
-137 22 -144 -9 -3 -8 -12 5 -31 17 -26 17 -27 0 -28 -16 0 -15 -2 2 -9 11 -5
14 -9 6 -9 -11 -1 -11 -4 -1 -16 11 -13 6 -14 -31 -9 -34 4 -40 2 -26 -6 21
-14 23 -32 2 -23 -10 3 -15 0 -13 -8 2 -8 -7 -15 -19 -17 -13 -2 -23 -8 -23
-13 0 -5 -7 -9 -16 -9 -9 0 -14 -7 -12 -18 4 -23 74 -28 136 -8 26 8 67 17 92
21 38 5 110 34 88 35 -4 0 -3 13 2 29 4 15 3 52 -2 82 -8 46 -7 55 8 66 10 7
30 13 46 13 25 0 28 3 28 35 l0 35 43 -22 c29 -15 61 -22 104 -23 50 -1 67 -5
86 -23 30 -29 40 -28 80 8 19 17 37 30 40 30 4 0 12 -19 19 -42 7 -26 27 -57
51 -80 37 -35 38 -38 35 -96 -3 -61 6 -88 21 -64 4 7 25 15 47 18 29 3 34 2
19 -5 l-20 -10 20 0 c11 -1 26 -5 34 -10 9 -6 -7 -9 -45 -8 -32 1 -67 -3 -77
-9 -17 -10 -17 -11 -1 -25 11 -8 15 -9 11 -2 -11 18 38 28 81 17 42 -11 50
-36 17 -54 -20 -10 -31 -10 -64 4 -23 9 -41 12 -41 8 0 -4 -4 0 -9 7 -8 12
-11 9 -17 -14 -11 -43 22 -65 96 -65 78 0 101 10 134 60 23 35 26 48 21 81 -8
44 -27 68 -56 70 -32 2 -37 4 -46 13 -4 4 11 7 35 4 31 -3 39 -1 29 7 -17 13
-37 90 -37 145 0 39 -4 58 -46 195 -10 33 -17 69 -17 80 2 24 -16 75 -27 75
-5 0 -6 8 -3 18 2 11 -3 37 -13 58 -9 21 -16 44 -14 49 1 6 2 28 1 50 -2 56
22 111 52 119 22 5 42 37 38 60 -1 4 2 13 8 20 11 13 30 130 33 205 3 50 1 55
-34 83 l-37 31 -53 -23 c-29 -12 -66 -32 -83 -43 l-30 -21 19 22 c11 12 14 22
8 22 -7 0 -12 5 -12 12 0 9 3 9 12 0 17 -17 29 -15 21 3 -3 9 -8 13 -11 10 -3
-3 -14 2 -24 12 -11 9 -18 11 -18 5 0 -7 5 -12 12 -12 6 0 4 -8 -6 -19 -14
-16 -21 -17 -31 -8 -9 9 -10 14 -1 20 8 5 7 10 -4 17 -12 8 -11 10 7 10 12 0
25 5 28 10 4 6 11 8 16 4 5 -3 9 -2 8 3 -3 17 1 36 7 30 3 -3 17 -2 30 3 19 8
29 5 45 -11 11 -11 17 -24 14 -28 -2 -5 1 -11 9 -14 20 -8 15 63 -7 97 -21 31
-33 33 -47 6 -6 -11 -17 -20 -25 -20 -16 0 -38 34 -28 44 12 12 -18 6 -47 -9
-24 -12 -28 -13 -24 -1 3 7 -8 28 -24 45 -16 18 -34 50 -41 71 -6 20 -18 43
-26 50 -8 7 -15 19 -15 26 0 8 -5 14 -11 14 -5 0 -7 -5 -3 -12z m-11 -39 c-10
-15 -25 -10 -19 6 4 8 10 12 15 9 5 -3 7 -10 4 -15z m-18 -135 c-3 -3 -12 -4
-19 -1 -8 3 -5 6 6 6 11 1 17 -2 13 -5z m-57 -14 c0 -5 -7 -10 -16 -10 -8 0
-12 5 -9 10 3 6 10 10 16 10 5 0 9 -4 9 -10z m-420 -160 c-8 -5 -22 -10 -30
-10 -13 0 -13 1 0 10 8 5 22 10 30 10 13 0 13 -1 0 -10z m851 -109 c7 12 9 11
9 -1 0 -14 -19 -51 -21 -40 -5 32 -7 52 -2 41 5 -11 7 -11 14 0z m-713 -73
l12 -33 -20 25 c-21 27 -25 40 -12 40 4 0 13 -15 20 -32z m99 -120 c24 4 25 2
19 -29 -5 -27 0 -42 30 -87 27 -42 31 -53 18 -50 -10 2 -30 26 -45 53 -58 106
-79 149 -64 130 10 -13 25 -19 42 -17z m414 -29 c11 -11 19 -23 16 -25 -6 -7
-67 26 -67 37 0 16 29 10 51 -12z m-22 -43 c9 -11 6 -18 -19 -36 -16 -12 -34
-19 -39 -15 -6 3 -15 -4 -21 -15 -6 -11 -17 -20 -26 -20 -8 0 -17 -7 -20 -15
-5 -11 -11 -12 -25 -4 -25 13 -24 33 1 26 11 -3 20 -1 20 4 0 5 6 9 14 9 9 0
12 7 9 19 -3 10 0 22 6 25 7 5 9 0 5 -11 -5 -14 -4 -15 4 -4 6 8 8 21 4 29 -4
11 -1 14 11 9 9 -3 17 -2 17 3 0 15 46 12 59 -4z m-246 -98 c10 -7 19 -27 21
-45 4 -25 0 -34 -15 -38 -30 -10 -47 7 -18 18 l24 10 -24 6 c-14 4 -27 13 -29
20 -3 9 2 11 16 7 11 -4 23 -2 27 4 4 6 -4 10 -20 10 -15 0 -24 4 -20 10 8 13
18 13 38 -2z m-53 -17 c0 -5 -9 -11 -20 -14 -22 -6 -28 8 -7 16 19 8 27 8 27
-2z m124 -32 c-9 -15 -23 -10 -34 11 -10 18 -9 19 14 8 14 -6 23 -15 20 -19z
m-41 -66 c-7 -2 -19 -2 -25 0 -7 3 -2 5 12 5 14 0 19 -2 13 -5z m369 -95 c-7
-7 -14 -3 -21 11 -10 17 -9 21 4 21 8 0 16 8 16 18 1 9 4 4 6 -12 3 -16 0 -33
-5 -38z m-312 -7 c0 -6 -4 -13 -10 -16 -5 -3 -10 1 -10 9 0 9 5 16 10 16 6 0
10 -4 10 -9z m33 -61 c-6 -7 -23 23 -23 40 0 8 6 4 13 -10 8 -14 12 -27 10
-30z m42 -19 c-9 -8 -36 -10 -30 -2 2 4 11 8 20 8 8 0 13 -3 10 -6z m-405 -71
c0 -5 -7 -10 -15 -10 -8 0 -15 5 -15 10 0 6 7 10 15 10 8 0 15 -4 15 -10z
m620 -10 c0 -5 -2 -10 -4 -10 -3 0 -8 5 -11 10 -3 6 -1 10 4 10 6 0 11 -4 11
-10z"/>
<path d="M655 1520 c-3 -5 -2 -10 4 -10 5 0 13 5 16 10 3 6 2 10 -4 10 -5 0
-13 -4 -16 -10z"/>
<path d="M1370 1480 c0 -5 5 -10 11 -10 5 0 7 5 4 10 -3 6 -8 10 -11 10 -2 0
-4 -4 -4 -10z"/>
</g>
</svg>
